<svg width="1440" height="560" viewBox="0 0 1440 560" fill="none" xmlns="http://www.w3.org/2000/svg">
  <defs>
    <linearGradient id="bg" x1="82" y1="34" x2="1378" y2="542" gradientUnits="userSpaceOnUse">
      <stop stop-color="#050A12"/>
      <stop offset="0.58" stop-color="#07111E"/>
      <stop offset="1" stop-color="#061625"/>
    </linearGradient>
    <radialGradient id="blue-glow" cx="0" cy="0" r="1" gradientTransform="translate(1242 88) rotate(137) scale(472 358)" gradientUnits="userSpaceOnUse">
      <stop stop-color="#1689E8" stop-opacity="0.31"/>
      <stop offset="1" stop-color="#1689E8" stop-opacity="0"/>
    </radialGradient>
    <radialGradient id="green-glow" cx="0" cy="0" r="1" gradientTransform="translate(704 565) rotate(-81) scale(235 534)" gradientUnits="userSpaceOnUse">
      <stop stop-color="#4BE38D" stop-opacity="0.19"/>
      <stop offset="1" stop-color="#4BE38D" stop-opacity="0"/>
    </radialGradient>
    <linearGradient id="signal" x1="156" y1="0" x2="576" y2="0" gradientUnits="userSpaceOnUse">
      <stop stop-color="#52E695"/>
      <stop offset="0.52" stop-color="#31C98E"/>
      <stop offset="1" stop-color="#198FE8"/>
    </linearGradient>
    <linearGradient id="glass" x1="822" y1="66" x2="1342" y2="500" gradientUnits="userSpaceOnUse">
      <stop stop-color="white" stop-opacity="0.105"/>
      <stop offset="0.46" stop-color="white" stop-opacity="0.035"/>
      <stop offset="1" stop-color="#1689E8" stop-opacity="0.04"/>
    </linearGradient>
    <linearGradient id="panel-inner" x1="842" y1="104" x2="1325" y2="470" gradientUnits="userSpaceOnUse">
      <stop stop-color="#0C1623"/>
      <stop offset="1" stop-color="#07101B"/>
    </linearGradient>
    <pattern id="micro-grid" width="32" height="32" patternUnits="userSpaceOnUse">
      <path d="M32 0H0V32" stroke="white" stroke-opacity="0.026" stroke-width="1"/>
    </pattern>
    <filter id="soft-shadow" x="-20%" y="-20%" width="140%" height="160%">
      <feDropShadow dx="0" dy="24" stdDeviation="28" flood-color="#00040A" flood-opacity="0.72"/>
    </filter>
    <filter id="green-bloom" x="-80%" y="-80%" width="260%" height="260%">
      <feGaussianBlur stdDeviation="11"/>
    </filter>
    <filter id="blue-bloom" x="-80%" y="-80%" width="260%" height="260%">
      <feGaussianBlur stdDeviation="18"/>
    </filter>
    <clipPath id="canvas-clip">
      <rect width="1440" height="560" rx="24"/>
    </clipPath>
    <style>
      .sans { font-family: "Segoe UI", "SF Pro Display", system-ui, sans-serif; }
      .serif { font-family: Georgia, "Times New Roman", serif; }
      .mono { font-family: "Cascadia Code", "SFMono-Regular", Consolas, monospace; }
      .caps { letter-spacing: .18em; text-transform: uppercase; }
    </style>
  </defs>

  <g clip-path="url(#canvas-clip)">
    <rect width="1440" height="560" fill="url(#bg)"/>
    <rect width="1440" height="560" fill="url(#micro-grid)"/>
    <rect width="1440" height="560" fill="url(#blue-glow)"/>
    <rect width="1440" height="560" fill="url(#green-glow)"/>

    <!-- Cinematic light traces -->
    <path d="M-120 462C244 374 483 455 782 346C1041 251 1198 61 1574 105" stroke="url(#signal)" stroke-opacity="0.18" stroke-width="1.4"/>
    <path d="M-102 493C275 398 523 487 809 377C1082 272 1229 92 1552 129" stroke="url(#signal)" stroke-opacity="0.08" stroke-width="18" filter="url(#blue-bloom)"/>
    <circle cx="1114" cy="209" r="132" fill="#1689E8" fill-opacity="0.055" filter="url(#blue-bloom)"/>
    <circle cx="823" cy="497" r="78" fill="#52E695" fill-opacity="0.08" filter="url(#green-bloom)"/>

    <!-- Precision frame -->
    <rect x="18.5" y="18.5" width="1403" height="523" rx="20.5" stroke="white" stroke-opacity="0.09"/>
    <path d="M18 74H48M18 74V44M1422 486H1392M1422 486V516" stroke="white" stroke-opacity="0.22"/>

    <!-- Campaign copy -->
    <g>
      <g transform="translate(72 60)">
        <rect width="248" height="32" rx="16" fill="#52E695" fill-opacity="0.075" stroke="#52E695" stroke-opacity="0.24"/>
        <circle cx="18" cy="16" r="3.5" fill="#52E695"/>
        <text x="32" y="21" class="mono caps" font-size="11" font-weight="700" fill="#77EDAB">ADCS · CERTIPY V5 · LOCAL</text>
      </g>

      <text x="72" y="151" class="sans caps" font-size="12" font-weight="700" fill="#7790A7">THE ESC RECOGNITION LAB</text>
      <text x="69" y="234" class="serif" font-size="78" font-weight="400" letter-spacing="-3.3" fill="#F6F3EA">Lee la seńal.</text>
      <text x="69" y="306" class="serif" font-size="78" font-weight="400" letter-spacing="-3.3" fill="#F6F3EA">Nombra el <tspan fill="#58E89B">ESC.</tspan></text>

      <text x="73" y="355" class="sans" font-size="18" font-weight="500" fill="#91A1B0">16 escenarios. Un método visual. De reconocimiento a mitigación.</text>

      <rect x="72" y="390" width="536" height="2" rx="1" fill="#1A2A38"/>
      <rect x="72" y="390" width="374" height="2" rx="1" fill="url(#signal)"/>

      <text x="72" y="434" class="mono" font-size="15" font-weight="600" fill="#DBE5EC">find</text>
      <text x="120" y="434" class="mono" font-size="15" fill="#466074">&#8594;</text>
      <text x="150" y="434" class="mono" font-size="15" font-weight="600" fill="#DBE5EC">signature</text>
      <text x="246" y="434" class="mono" font-size="15" fill="#466074">&#8594;</text>
      <text x="276" y="434" class="mono" font-size="15" font-weight="600" fill="#58E89B">ESC</text>
      <text x="318" y="434" class="mono" font-size="15" fill="#466074">&#8594;</text>
      <text x="348" y="434" class="mono" font-size="15" font-weight="600" fill="#DBE5EC">mitigate</text>

      <!-- Proof strip -->
      <g transform="translate(72 474)">
        <text x="0" y="0" class="sans" font-size="22" font-weight="700" fill="#F6F3EA">16</text>
        <text x="0" y="21" class="mono caps" font-size="9" font-weight="700" fill="#64798B">ESC CASES</text>
        <path d="M84 -12V28" stroke="white" stroke-opacity="0.1"/>

        <text x="112" y="0" class="sans" font-size="22" font-weight="700" fill="#F6F3EA">06</text>
        <text x="112" y="21" class="mono caps" font-size="9" font-weight="700" fill="#64798B">LEARNING TOOLS</text>
        <path d="M234 -12V28" stroke="white" stroke-opacity="0.1"/>

        <text x="262" y="0" class="sans" font-size="22" font-weight="700" fill="#F6F3EA">ES/EN</text>
        <text x="262" y="21" class="mono caps" font-size="9" font-weight="700" fill="#64798B">BILINGUAL</text>
        <path d="M372 -12V28" stroke="white" stroke-opacity="0.1"/>

        <text x="400" y="0" class="sans" font-size="22" font-weight="700" fill="#F6F3EA">100%</text>
        <text x="400" y="21" class="mono caps" font-size="9" font-weight="700" fill="#64798B">LOCAL</text>
      </g>
    </g>

    <!-- Product double bezel -->
    <g filter="url(#soft-shadow)">
      <rect x="746" y="58" width="634" height="444" rx="36" fill="url(#glass)" stroke="white" stroke-opacity="0.13"/>
      <rect x="754" y="66" width="618" height="428" rx="29" fill="url(#panel-inner)" stroke="white" stroke-opacity="0.075"/>

      <!-- Product chrome -->
      <circle cx="783" cy="95" r="5.5" fill="#FF6259"/>
      <circle cx="802" cy="95" r="5.5" fill="#FFBD2E"/>
      <circle cx="821" cy="95" r="5.5" fill="#28C840"/>
      <text x="848" y="100" class="mono" font-size="10" fill="#536A7D">certipy-ad / lab.local</text>
      <circle cx="1322" cy="95" r="3.5" fill="#52E695"/>
      <text x="1333" y="99" text-anchor="end" class="mono caps" font-size="9" font-weight="700" fill="#52E695">LIVE LAB</text>
      <path d="M754 121H1372" stroke="white" stroke-opacity="0.065"/>

      <!-- Stage pills -->
      <g transform="translate(788 143)">
        <rect width="92" height="28" rx="14" fill="#52E695"/>
        <text x="46" y="18" text-anchor="middle" class="mono caps" font-size="9" font-weight="800" fill="#07130E">FIND</text>
        <rect x="100" width="92" height="28" rx="14" fill="white" fill-opacity="0.035" stroke="white" stroke-opacity="0.08"/>
        <text x="146" y="18" text-anchor="middle" class="mono caps" font-size="9" font-weight="700" fill="#63798B">REQ</text>
        <rect x="200" width="92" height="28" rx="14" fill="white" fill-opacity="0.035" stroke="white" stroke-opacity="0.08"/>
        <text x="246" y="18" text-anchor="middle" class="mono caps" font-size="9" font-weight="700" fill="#63798B">AUTH</text>
      </g>

      <!-- Terminal surface -->
      <g transform="translate(782 192)">
        <rect width="330" height="246" rx="18" fill="#050B12" stroke="white" stroke-opacity="0.085"/>
        <path d="M0 42H330" stroke="white" stroke-opacity="0.065"/>
        <text x="18" y="26" class="mono caps" font-size="9" font-weight="700" fill="#586E80">CERTIPY OUTPUT</text>
        <text x="18" y="68" class="mono" font-size="11" fill="#F0F4F6"><tspan fill="#58E89B">$</tspan> certipy-ad find -vulnerable</text>
        <text x="18" y="95" class="mono" font-size="10" fill="#607384">[*] Finding certificate templates</text>
        <text x="18" y="119" class="mono" font-size="10" fill="#607384">[*] Found 32 certificate templates</text>
        <text x="18" y="150" class="mono" font-size="10" fill="#E7B85B">[!] Vulnerabilities</text>
        <text x="28" y="175" class="mono" font-size="10" font-weight="700" fill="#58E89B">ESC1</text>
        <text x="70" y="175" class="mono" font-size="9" fill="#8396A5">SUPPLIES_SUBJECT</text>
        <text x="28" y="199" class="mono" font-size="10" font-weight="700" fill="#58E89B">ESC4</text>
        <text x="70" y="199" class="mono" font-size="9" fill="#8396A5">DANGEROUS_ACL</text>
        <text x="28" y="223" class="mono" font-size="10" font-weight="700" fill="#58E89B">ESC8</text>
        <text x="70" y="223" class="mono" font-size="9" fill="#8396A5">WEB_ENROLLMENT</text>
      </g>

      <!-- Recognition surface -->
      <g transform="translate(1130 192)">
        <rect width="206" height="246" rx="18" fill="white" fill-opacity="0.027" stroke="white" stroke-opacity="0.085"/>
        <text x="18" y="27" class="mono caps" font-size="9" font-weight="700" fill="#586E80">SIGNAL MAP</text>
        <text x="172" y="27" text-anchor="end" class="mono" font-size="10" font-weight="700" fill="#58E89B">32/32</text>

        <g transform="translate(18 48)">
          <rect width="18" height="18" rx="4" fill="white" fill-opacity="0.08" stroke="white" stroke-opacity="0.13"/>
          <rect x="26" width="18" height="18" rx="4" fill="white" fill-opacity="0.08" stroke="white" stroke-opacity="0.13"/>
          <rect x="52" width="18" height="18" rx="4" fill="#52E695" fill-opacity="0.3" stroke="#52E695"/>
          <rect x="78" width="18" height="18" rx="4" fill="white" fill-opacity="0.08" stroke="white" stroke-opacity="0.13"/>
          <rect x="104" width="18" height="18" rx="4" fill="white" fill-opacity="0.08" stroke="white" stroke-opacity="0.13"/>
          <rect x="130" width="18" height="18" rx="4" fill="white" fill-opacity="0.08" stroke="white" stroke-opacity="0.13"/>
          <rect x="156" width="18" height="18" rx="4" fill="white" fill-opacity="0.08" stroke="white" stroke-opacity="0.13"/>

          <rect y="26" width="18" height="18" rx="4" fill="white" fill-opacity="0.08" stroke="white" stroke-opacity="0.13"/>
          <rect x="26" y="26" width="18" height="18" rx="4" fill="white" fill-opacity="0.08" stroke="white" stroke-opacity="0.13"/>
          <rect x="52" y="26" width="18" height="18" rx="4" fill="white" fill-opacity="0.08" stroke="white" stroke-opacity="0.13"/>
          <rect x="78" y="26" width="18" height="18" rx="4" fill="#52E695" fill-opacity="0.3" stroke="#52E695"/>
          <rect x="104" y="26" width="18" height="18" rx="4" fill="white" fill-opacity="0.08" stroke="white" stroke-opacity="0.13"/>
          <rect x="130" y="26" width="18" height="18" rx="4" fill="white" fill-opacity="0.08" stroke="white" stroke-opacity="0.13"/>
          <rect x="156" y="26" width="18" height="18" rx="4" fill="white" fill-opacity="0.08" stroke="white" stroke-opacity="0.13"/>
        </g>

        <g transform="translate(18 122)">
          <rect width="170" height="32" rx="9" fill="#52E695" fill-opacity="0.075" stroke="#52E695" stroke-opacity="0.27"/>
          <text x="12" y="20" class="mono" font-size="9" font-weight="800" fill="#58E89B">ESC1</text>
          <text x="52" y="20" class="sans" font-size="9" fill="#8EA0AE">Template</text>
          <rect y="42" width="170" height="32" rx="9" fill="#52E695" fill-opacity="0.075" stroke="#52E695" stroke-opacity="0.27"/>
          <text x="12" y="62" class="mono" font-size="9" font-weight="800" fill="#58E89B">ESC4</text>
          <text x="52" y="62" class="sans" font-size="9" fill="#8EA0AE">ACL</text>
          <rect y="84" width="170" height="32" rx="9" fill="#1689E8" fill-opacity="0.075" stroke="#1689E8" stroke-opacity="0.3"/>
          <text x="12" y="104" class="mono" font-size="9" font-weight="800" fill="#4CB5FF">ESC8</text>
          <text x="52" y="104" class="sans" font-size="9" fill="#8EA0AE">Relay</text>
        </g>
      </g>

      <!-- Product footer -->
      <g transform="translate(782 460)">
        <rect width="554" height="4" rx="2" fill="white" fill-opacity="0.055"/>
        <rect width="184" height="4" rx="2" fill="#52E695"/>
        <rect x="191" width="176" height="4" rx="2" fill="#1689E8" fill-opacity="0.34"/>
        <rect x="374" width="180" height="4" rx="2" fill="white" fill-opacity="0.08"/>
        <text y="25" class="mono caps" font-size="8" font-weight="700" fill="#526A7C">RECOGNIZE · UNDERSTAND · DEFEND</text>
        <text x="554" y="25" text-anchor="end" class="mono caps" font-size="8" font-weight="700" fill="#52E695">AUTHORIZED LABS ONLY</text>
      </g>
    </g>

    <!-- Brand signature -->
    <g transform="translate(1322 523)">
      <path d="M0-9L9-4V5C9 12 4 16 0 18C-4 16-9 12-9 5V-4L0-9Z" stroke="#52E695" stroke-width="1.4"/>
      <circle cy="3" r="2.4" fill="#52E695"/>
      <text x="-21" y="5" text-anchor="end" class="mono caps" font-size="8" font-weight="700" fill="#597083">ADCS ESC LAB · 2026</text>
    </g>
  </g>
</svg>
